<svg xmlns="http://www.w3.org/2000/svg" xmlns:xlink="http://www.w3.org/1999/xlink" width="469" height="160" viewBox="0 0 469 160">
  <defs>
    <path id="placement-a" d="M42,6 L48,6 C51.3137085,6 54,8.6862915 54,12 L54,48 C54,51.3137085 51.3137085,54 48,54 L6,54 C2.6862915,54 0,51.3137085 0,48 L0,12 C0,8.6862915 2.6862915,6 6,6 L12,6 L12,3 C12,1.34314575 13.3431458,0 15,0 C16.6568542,0 18,1.34314575 18,3 L18,6 L36,6 L36,3 C36,1.34314575 37.3431458,0 39,0 C40.6568542,0 42,1.34314575 42,3 L42,6 Z M6,21 L6,48 L48,48 L48,21 L6,21 Z"/>
    <circle id="placement-c" cx="9.5" cy="9.5" r="3.5"/>
    <circle id="placement-d" cx="9.5" cy="9.5" r="3.5"/>
  </defs>
  <g fill="none" fill-rule="evenodd">
    <rect width="469" height="160" rx="4"/>
    <rect width="17" height="356" x="240.5" y="-128.5" fill="#E6F2FF" stroke="#99C9FF" transform="rotate(90 249 49.5)"/>
    <rect width="18" height="356" x="240.5" y="-75.5" fill="#E6F2FF" stroke="#99C9FF" transform="rotate(90 249.5 102.5)"/>
    <path fill="#0071F2" d="M94.5113583,93 L90.0113626,93 L102.011351,58.0909424 L106.374983,58.0909424 L118.374972,93 L113.874976,93 L110.789752,83.6590998 L97.6306735,83.6590998 L94.5113583,93 Z M103.988622,64.5682089 L98.8749905,79.9091034 L109.545435,79.9091034 L104.465894,64.5682089 L103.988622,64.5682089 Z M135.624985,93 L123.556814,93 L123.556814,58.0909424 L135.011349,58.0909424 C141.965888,58.0909424 146.056793,62.5227563 146.056793,67.4318426 C146.056793,70.755703 144.113613,73.7557002 140.960207,75.3238805 C144.931794,76.2102433 147.420428,78.9716043 147.420428,83.1136458 C147.420428,89.4545488 142.511342,93 135.624985,93 Z M127.784083,61.8409388 L127.784083,73.5000186 L128.874991,73.5000186 L135.931802,73.4488823 C139.170436,73.0568372 141.829524,70.4488851 141.829524,67.4318426 C141.829524,64.6363907 139.511345,61.8409388 135.011349,61.8409388 L127.784083,61.8409388 Z M143.261341,83.1136458 C143.261341,79.0909224 140.261344,77.250015 135.82953,77.250015 L127.784083,77.250015 L127.784083,89.2500036 L135.624985,89.2500036 C139.71589,89.2500036 143.261341,87.477278 143.261341,83.1136458 Z M179.738608,67.0909338 L175.306794,67.0909338 C174.556795,63.6136644 170.943162,61.5682118 167.329529,61.5682118 C161.53408,61.5682118 157.102266,66.8182068 157.102266,75.5454712 C157.102266,84.2727356 161.53408,89.5227306 167.329529,89.5227306 C170.943162,89.5227306 174.488613,87.477278 175.306794,84.0000086 L179.738608,84.0000086 C178.579518,90.0000029 173.312478,93.4772723 167.329529,93.4772723 C158.943173,93.4772723 153.011361,86.659097 153.011361,75.5454712 C153.011361,64.5000272 158.943173,57.6136701 167.329529,57.6136701 C173.295432,57.6136701 178.579518,61.0909395 179.738608,67.0909338 Z M210.215895,58.0909424 L210.215895,93 L206.193172,93 L206.193172,62.3863928 L205.988626,62.3863928 L199.238633,66.3409345 L197.465907,63.2045739 L206.193172,58.0909424 L210.215895,58.0909424 Z M242.465885,89.2500036 L242.465885,93 L219.011361,93 L219.011361,89.9318211 L231.284077,77.3181968 C235.511346,72.9545646 237.488617,70.636385 237.488617,67.6193424 C237.488617,64.1591184 234.89771,61.0909395 230.687487,61.0909395 C225.9659,61.0909395 224.465902,64.9772995 224.465902,69.0000229 L220.306815,69.0000229 C220.306815,63.3409374 223.306812,57.6136701 230.82385,57.6136701 C237.21589,57.6136701 241.579522,61.7727571 241.579522,67.5000243 C241.579522,71.5227478 238.357934,75.732971 234.761346,79.4318311 L226.5284,87.8693231 C225.9659,88.448868 225.607946,88.8068222 224.943174,89.1136401 L225.147719,89.5227306 C225.829537,89.2500036 226.443173,89.2500036 227.397717,89.2500036 L242.465885,89.2500036 Z M256.579535,77.250015 L256.579535,73.3636551 L258.556805,73.3636551 C262.920438,73.3636551 265.374981,70.5682032 265.374981,67.2272973 C265.374981,63.3409374 262.715892,60.954576 258.999987,60.954576 C255.215899,60.954576 252.761356,63.4091191 252.761356,66.8182068 L248.738633,66.8182068 C248.738633,61.7045753 252.352266,57.6136701 259.051123,57.6136701 C265.102254,57.6136701 269.534068,60.954576 269.534068,67.2954791 C269.534068,69.7670676 268.06816,73.3466097 264.386345,75.1363807 C269.005659,76.704561 270.284067,80.437512 270.284067,83.5568272 C270.284067,89.7954576 265.102254,93.4772723 258.897714,93.4772723 C252.761356,93.4772723 248.397724,90.2727299 248.397724,84.2727356 L252.761356,84.2727356 C252.761356,87.750005 254.943172,89.8636394 258.829532,89.8636394 C262.715892,89.8636394 265.852253,87.750005 265.852253,83.5227363 C265.852253,79.3636494 262.784074,77.250015 258.556805,77.250015 L256.579535,77.250015 Z M310.579523,89.2500036 L310.579523,93 L290.670451,93 L290.670451,58.0909424 L294.897719,58.0909424 L294.897719,89.2500036 L310.579523,89.2500036 Z M331.988618,93 L331.988618,89.4545488 L331.784073,89.4545488 C330.965892,91.1590927 328.57953,93.6136358 324.011353,93.6136358 C319.034085,93.6136358 315.079543,90.6818204 315.079543,85.7727342 C315.079543,77.4545603 326.329533,77.0454698 330.761346,76.5681975 L331.988618,76.431834 L331.988618,76.0909252 C331.988618,72.3409288 329.534075,70.0227492 325.647715,70.0227492 C322.511354,70.0227492 320.39772,71.5227478 319.170448,74.3181996 L315.420452,72.8863828 C317.534086,67.2272973 322.784081,66.477298 325.579533,66.477298 C330.89771,66.477298 336.011341,69.1363864 336.011341,76.8409245 L336.011341,93 L331.988618,93 Z M331.988618,79.9772851 L331.170437,80.0454669 C328.511349,80.2500122 319.102267,80.3181939 319.102267,85.7727342 C319.102267,88.4318225 321.420446,90.0000029 324.079535,90.0000029 C329.32953,90.0000029 331.988618,86.7954605 331.988618,83.5227363 L331.988618,79.9772851 Z M343.102269,58.0909424 L347.124993,58.0909424 L347.124993,70.0909309 L347.534083,70.0909309 C348.914764,68.0795692 351.198853,66.477298 354.829531,66.477298 C361.852251,66.477298 366.488611,71.727293 366.488611,79.9091034 C366.488611,88.1590955 361.852251,93.545454 354.829531,93.545454 C351.079534,93.545454 348.761355,91.8920465 347.39772,89.7954576 L347.005675,89.7954576 L346.784084,93 L343.102269,93 L343.102269,58.0909424 Z M347.329538,84.2727356 C348.147719,87.6818233 351.556807,89.9318211 354.829531,89.9318211 C359.193163,89.9318211 362.465887,85.9772794 362.465887,79.9091034 C362.465887,73.8409274 359.193163,70.0909309 354.761349,70.0909309 C351.352261,70.0909309 348.352264,72.3409288 347.39772,75.5454712 C346.886357,77.3181968 346.852266,79.2613767 346.852266,79.9091034 C346.852266,80.5909209 346.886357,82.6363735 347.329538,84.2727356 Z M383.26135,93.545454 C375.284085,93.545454 371.124998,87.750005 371.124998,79.9772851 C371.124998,72.2045653 375.420448,66.477298 382.920441,66.477298 C388.920435,66.477298 394.715884,70.1591127 394.715884,79.7727399 L394.715884,81.4772837 L375.215903,81.4772837 C375.710221,87.1193238 378.931809,89.9318211 383.124986,89.9318211 C386.329529,89.9318211 389.261344,88.295459 390.488616,85.7727342 L394.102249,87.3409145 C392.534068,91.0909109 388.511345,93.545454 383.26135,93.545454 Z M383.056805,70.0909309 C378.676127,70.0909309 375.812493,72.97161 375.249994,78.0000143 L390.761343,78.0000143 C390.761343,73.5682003 387.829527,70.0909309 383.056805,70.0909309 Z M404.534084,58.0909424 L404.534084,93 L400.51136,93 L400.51136,58.0909424 L404.534084,58.0909424 Z"/>
    <g transform="translate(9 49)">
      <rect width="53" height="53" x=".5" y=".5" stroke="#E3E3E6"/>
      <mask id="placement-b" fill="#fff">
        <use xlink:href="#placement-a"/>
      </mask>
      <use fill="#000" xlink:href="#placement-a"/>
      <g fill="#0071F2" mask="url(#placement-b)">
        <rect width="72" height="72" transform="translate(-9 -9)"/>
      </g>
    </g>
    <g transform="translate(0 39)">
      <rect width="17" height="71" x="71.5" y="1.5" fill="#E6F2FF" stroke="#99C9FF" style="mix-blend-mode:multiply"/>
      <g transform="translate(417)">
        <path stroke="#0071F2" stroke-linecap="square" d="M10.5,9.5 L38.5,9.5"/>
        <use fill="#FFF" xlink:href="#placement-c"/>
        <circle cx="9.5" cy="9.5" r="6.5" stroke="#0071F2" stroke-opacity=".12" stroke-width="6"/>
        <circle cx="9.5" cy="9.5" r="5" stroke="#0071F2" stroke-opacity=".24" stroke-width="3"/>
        <use stroke="#0071F2" xlink:href="#placement-c"/>
      </g>
      <g transform="rotate(90 13 76)">
        <path stroke="#0071F2" stroke-linecap="square" d="M10.5,9.5 L38.5,9.5"/>
        <use fill="#FFF" xlink:href="#placement-d"/>
        <circle cx="9.5" cy="9.5" r="6.5" stroke="#0071F2" stroke-opacity=".12" stroke-width="6"/>
        <circle cx="9.5" cy="9.5" r="5" stroke="#0071F2" stroke-opacity=".24" stroke-width="3"/>
        <use stroke="#0071F2" xlink:href="#placement-d"/>
      </g>
      <text fill="#0071F2" font-family="InterUI-Medium, Inter UI" font-size="14" font-weight="400">
        <tspan x="461.13" y="13">a</tspan>
      </text>
      <text fill="#0071F2" font-family="InterUI-Medium, Inter UI" font-size="14" font-weight="400">
        <tspan x="84.319" y="102">b</tspan>
      </text>
      <g stroke-linejoin="square">
        <rect width="66" height="66" x="3" y="4" stroke="#E6F2FF" stroke-width="6"/>
        <rect width="71" height="71" x=".5" y="1.5" stroke="#0071F2"/>
      </g>
    </g>
  </g>
</svg>
