<svg xmlns="http://www.w3.org/2000/svg" xmlns:xlink="http://www.w3.org/1999/xlink" width="223" height="70" viewBox="0 0 223 70">
  <defs>
    <path id="secondary-a" d="M14.0069789,19.7080403 C14.002344,19.8047774 14,19.9021149 14,20 C14,20.5965633 14.0870638,21.1727917 14.2491782,21.7166721 C13.5302808,21.9016307 12.7766281,22 12,22 C7.02943725,22 3,17.9705627 3,13 C3,9.05870117 5.53344805,5.70912084 9.06069225,4.49091092 C9.02105563,4.33384152 9,4.16937966 9,4 C9,2.8954305 9.8954305,2 11,2 L13,2 C14.1045695,2 15,2.8954305 15,4 C15,4.16937966 14.9789444,4.33384152 14.9393077,4.49091092 C15.5943116,4.71713063 16.2150454,5.01684834 16.7916499,5.38020473 C16.7979286,5.37373841 16.8042654,5.36730752 16.8106602,5.3609127 C17.514893,4.65667991 18.6566799,4.65667991 19.3609127,5.3609127 L19.6390873,5.6390873 C20.3433201,6.34332009 20.3433201,7.48510704 19.6390873,8.18933983 C19.6326925,8.19573464 19.6262616,8.20207139 19.6197953,8.20835007 C20.494141,9.59583558 21,11.2388429 21,13 C21,13.3629842 20.9785114,13.7209494 20.9367369,14.0726929 C20.6315138,14.0248413 20.3186579,14 20,14 C19.6293182,14 19.2664874,14.0336145 18.9143898,14.0979616 C18.970741,13.7402528 19,13.3735433 19,13 C19,9.13400675 15.8659932,6 12,6 C8.13400675,6 5,9.13400675 5,13 C5,16.8659932 8.13400675,20 12,20 C12.6975244,20 13.3712201,19.8979774 14.0069789,19.7080403 Z M21,19 L23,19 C23.5522847,19 24,19.4477153 24,20 C24,20.5522847 23.5522847,21 23,21 L21,21 L21,23 C21,23.5522847 20.5522847,24 20,24 C19.4477153,24 19,23.5522847 19,23 L19,21 L17,21 C16.4477153,21 16,20.5522847 16,20 C16,19.4477153 16.4477153,19 17,19 L19,19 L19,17 C19,16.4477153 19.4477153,16 20,16 C20.5522847,16 21,16.4477153 21,17 L21,19 Z M11,11.2675644 L11,9 C11,8.44771525 11.4477153,8 12,8 C12.5522847,8 13,8.44771525 13,9 L13,11.2675644 C13.5978014,11.6133738 14,12.2597176 14,13 C14,14.1045695 13.1045695,15 12,15 C10.8954305,15 10,14.1045695 10,13 C10,12.2597176 10.4021986,11.6133738 11,11.2675644 Z"/>
    <path id="secondary-c" d="M21.7441613,14.2574441 C21.1922215,14.0900251 20.606624,14 20,14 C19.9151206,14 19.8306528,14.0017625 19.7466312,14.0052529 C19.9120214,13.364436 20,12.692496 20,12 C20,7.58158644 16.4184136,4 12,4 C7.58158644,4 4,7.58158644 4,12 C4,16.4184136 7.58158644,20 12,20 C12.692496,20 13.364436,19.9120214 14.0052529,19.7466312 C14.0017625,19.8306528 14,19.9151206 14,20 C14,20.606624 14.0900251,21.1922215 14.2574441,21.7441613 C13.5319813,21.9115442 12.7763237,22 12,22 C6.47701386,22 2,17.5229861 2,12 C2,6.47701386 6.47701386,2 12,2 C17.5229861,2 22,6.47701386 22,12 C22,12.7763237 21.9115442,13.5319813 21.7441613,14.2574441 Z M10.85725,15.7765003 L7.29325,12.2125003 C6.90225,11.8215003 6.90225,11.1895003 7.29325,10.7985003 C7.68425,10.4075003 8.31625,10.4075003 8.70725,10.7985003 L10.85725,12.9485003 L15.29325,8.51250027 C15.68425,8.12250027 16.31625,8.12250027 16.70725,8.51250027 C17.09825,8.90350027 17.09825,9.53650027 16.70725,9.92650027 L10.85725,15.7765003 Z M21,19 L23,19 C23.5522847,19 24,19.4477153 24,20 C24,20.5522847 23.5522847,21 23,21 L21,21 L21,23 C21,23.5522847 20.5522847,24 20,24 C19.4477153,24 19,23.5522847 19,23 L19,21 L17,21 C16.4477153,21 16,20.5522847 16,20 C16,19.4477153 16.4477153,19 17,19 L19,19 L19,17 C19,16.4477153 19.4477153,16 20,16 C20.5522847,16 21,16.4477153 21,17 L21,19 Z"/>
    <path id="secondary-e" d="M20,14 L20,7 C20,6.44771525 19.5522847,6 19,6 C18.4477153,6 18,6.44771525 18,7 L18,14.3414114 C18.6255579,14.1203084 19.2987292,14 20,14 Z M14.3414114,22 L6,22 C4.8954305,22 4,21.1045695 4,20 L4,7 C4,6.44771525 4.44771525,6 5,6 C5.55228475,6 6,6.44771525 6,7 L6,20 L14,20 C14,20.7012708 14.1203084,21.3744421 14.3414114,22 Z M10,11 L14,11 C14.5522847,11 15,11.4477153 15,12 C15,12.5522847 14.5522847,13 14,13 L10,13 C9.44771525,13 9,12.5522847 9,12 C9,11.4477153 9.44771525,11 10,11 Z M10,15 L14,15 C14.5522847,15 15,15.4477153 15,16 C15,16.5522847 14.5522847,17 14,17 L10,17 C9.44771525,17 9,16.5522847 9,16 C9,15.4477153 9.44771525,15 10,15 Z M21,19 L23,19 C23.5522847,19 24,19.4477153 24,20 C24,20.5522847 23.5522847,21 23,21 L21,21 L21,23 C21,23.5522847 20.5522847,24 20,24 C19.4477153,24 19,23.5522847 19,23 L19,21 L17,21 C16.4477153,21 16,20.5522847 16,20 C16,19.4477153 16.4477153,19 17,19 L19,19 L19,17 C19,16.4477153 19.4477153,16 20,16 C20.5522847,16 21,16.4477153 21,17 L21,19 Z M10.2675644,3 C10.6133738,2.40219863 11.2597176,2 12,2 C12.7402824,2 13.3866262,2.40219863 13.7324356,3 L14,3 C15.1045695,3 16,3.8954305 16,5 L16,7 C16,7.55228475 15.5522847,8 15,8 L9,8 C8.44771525,8 8,7.55228475 8,7 L8,5 C8,3.8954305 8.8954305,3 10,3 L10.2675644,3 Z M10,5 L10,6 L14,6 L14,5 L10,5 Z M12,4 C11.4477153,4 11,4.44771525 11,5 L13,5 C13,4.44771525 12.5522847,4 12,4 Z"/>
    <path id="secondary-g" d="M15.9981484,15.5294449 C14.9361735,14.5787314 13.5345409,14 12,14 C8.691,14 6,16.691 6,20 L4,20 C4,15.589 7.589,12 12,12 C14.2519731,12 16.2896946,12.9354611 17.7449612,14.4381801 C17.0990442,14.7003267 16.5091303,15.0717246 15.9981484,15.5294449 Z M4,20 L6,20 L6,21 C6,21.5522847 5.55228475,22 5,22 C4.44771525,22 4,21.5522847 4,21 L4,20 Z M12,10 C9.790861,10 8,8.209139 8,6 C8,3.790861 9.790861,2 12,2 C14.209139,2 16,3.790861 16,6 C16,8.209139 14.209139,10 12,10 Z M12,8 C13.1045695,8 14,7.1045695 14,6 C14,4.8954305 13.1045695,4 12,4 C10.8954305,4 10,4.8954305 10,6 C10,7.1045695 10.8954305,8 12,8 Z M21,19 L23,19 C23.5522847,19 24,19.4477153 24,20 C24,20.5522847 23.5522847,21 23,21 L21,21 L21,23 C21,23.5522847 20.5522847,24 20,24 C19.4477153,24 19,23.5522847 19,23 L19,21 L17,21 C16.4477153,21 16,20.5522847 16,20 C16,19.4477153 16.4477153,19 17,19 L19,19 L19,17 C19,16.4477153 19.4477153,16 20,16 C20.5522847,16 21,16.4477153 21,17 L21,19 Z"/>
    <path id="secondary-i" d="M21,14.0829584 C20.6747915,14.0283988 20.3407122,14 20,14 C19.6592878,14 19.3252085,14.0283988 19,14.0829584 L19,10 L5,10 L5,19 L14.0829584,19 C14.0283988,19.3252085 14,19.6592878 14,20 C14,20.3407122 14.0283988,20.6747915 14.0829584,21 L5,21 C3.8954305,21 3,20.1045695 3,19 L3,7 C3,5.8954305 3.8954305,5 5,5 L7,5 L7,4 C7,3.44771525 7.44771525,3 8,3 C8.55228475,3 9,3.44771525 9,4 L9,5 L15,5 L15,4 C15,3.44771525 15.4477153,3 16,3 C16.5522847,3 17,3.44771525 17,4 L17,5 L19,5 C20.1045695,5 21,5.8954305 21,7 L21,14.0829584 Z M21,19 L23,19 C23.5522847,19 24,19.4477153 24,20 C24,20.5522847 23.5522847,21 23,21 L21,21 L21,23 C21,23.5522847 20.5522847,24 20,24 C19.4477153,24 19,23.5522847 19,23 L19,21 L17,21 C16.4477153,21 16,20.5522847 16,20 C16,19.4477153 16.4477153,19 17,19 L19,19 L19,17 C19,16.4477153 19.4477153,16 20,16 C20.5522847,16 21,16.4477153 21,17 L21,19 Z"/>
    <path id="secondary-k" d="M19.8671253,14.0014422 C18.8759669,14.022978 17.9440219,14.2848634 17.127252,14.7311366 L15.9839118,14.0724515 C15.9412637,14.0544359 15.9145464,14.0495 15.8876604,14.0495 C15.814976,14.0495 15.7456775,14.0787429 15.7224694,14.1028692 L13.5005203,16.471038 L12.1331744,15.699148 C11.5114685,15.3481844 10.8147193,14.8115486 10.0429632,14.0527395 C9.23327711,13.2568798 8.66698921,12.5374319 8.30359508,11.8962885 L7.57842635,10.6168591 L8.58350279,9.54325277 L9.65157723,8.40248803 C9.70043415,8.35129471 9.72452615,8.19977136 9.7109011,8.16920479 L7.9986632,5.01835974 C7.9923573,5.00611991 7.05924778,5.98210998 5.19933464,7.94632993 C5.11519947,8.03419386 5.02067775,8.23613126 5.00484906,8.37269881 C4.99700432,8.43937438 4.99417795,8.59506834 5.01503045,8.82887553 C5.05130976,9.23565488 5.1487129,9.70693147 5.32684826,10.2370958 C5.85421024,11.8066242 6.95388856,13.529562 8.80838199,15.3526988 C10.3751976,16.8928431 11.869668,17.8961534 13.2617581,18.4682672 C13.5672356,18.5938107 13.8555192,18.6940563 14.125746,18.7721409 C14.0433208,19.1684982 14,19.57919 14,20 C14,20.2769184 14.0187598,20.5494553 14.0550779,20.816409 C12.496496,20.4624786 10.1399327,19.4660399 7.40636024,16.779 C2.70262741,12.1548 2.97174645,8.5368 3.01854977,8.139 C3.08425442,7.572 3.3695746,6.9654 3.75480186,6.5631 L6.52699802,3.6354 C6.91942579,3.225 7.4396626,3 7.99320177,3 C8.75015533,3 9.42700322,3.4212 9.77802806,4.1052 L11.4494463,7.1751 L11.4962496,7.2678 C11.8859772,8.094 11.7185654,9.1335 11.0984215,9.7833 L10.0435468,10.9101 C10.2460612,11.2674 10.6510898,11.8461 11.444946,12.6264 C12.1991994,13.368 12.7608391,13.7568 13.1163643,13.9575 L14.2639455,12.7344 C14.6797749,12.2997 15.2720168,12.0495 15.8876604,12.0495 C16.2305846,12.0495 16.5699086,12.1287 16.9191334,12.3024 L16.9659367,12.3303 L19.8671253,14.0014422 Z M21,19 L23,19 C23.5522847,19 24,19.4477153 24,20 C24,20.5522847 23.5522847,21 23,21 L21,21 L21,23 C21,23.5522847 20.5522847,24 20,24 C19.4477153,24 19,23.5522847 19,23 L19,21 L17,21 C16.4477153,21 16,20.5522847 16,20 C16,19.4477153 16.4477153,19 17,19 L19,19 L19,17 C19,16.4477153 19.4477153,16 20,16 C20.5522847,16 21,16.4477153 21,17 L21,19 Z"/>
  </defs>
  <g fill="none" fill-rule="evenodd" transform="translate(1 -2)">
    <g transform="translate(102)">
      <mask id="secondary-b" fill="#fff">
        <use xlink:href="#secondary-a"/>
      </mask>
      <use fill="#000" fill-rule="nonzero" xlink:href="#secondary-a"/>
      <g fill="#2A3B4D" mask="url(#secondary-b)">
        <rect width="24" height="24"/>
      </g>
    </g>
    <g transform="translate(150)">
      <mask id="secondary-d" fill="#fff">
        <use xlink:href="#secondary-c"/>
      </mask>
      <use fill="#000" xlink:href="#secondary-c"/>
      <g fill="#2A3B4D" mask="url(#secondary-d)">
        <rect width="24" height="24"/>
      </g>
    </g>
    <g transform="translate(198)">
      <mask id="secondary-f" fill="#fff">
        <use xlink:href="#secondary-e"/>
      </mask>
      <use fill="#000" fill-rule="nonzero" xlink:href="#secondary-e"/>
      <g fill="#2A3B4D" mask="url(#secondary-f)">
        <rect width="24" height="24"/>
      </g>
    </g>
    <g transform="translate(102 48)">
      <mask id="secondary-h" fill="#fff">
        <use xlink:href="#secondary-g"/>
      </mask>
      <use fill="#000" xlink:href="#secondary-g"/>
      <g fill="#2A3B4D" mask="url(#secondary-h)">
        <rect width="24" height="24"/>
      </g>
    </g>
    <g transform="translate(150 48)">
      <mask id="secondary-j" fill="#fff">
        <use xlink:href="#secondary-i"/>
      </mask>
      <use fill="#000" xlink:href="#secondary-i"/>
      <g fill="#2A3B4D" mask="url(#secondary-j)">
        <rect width="24" height="24"/>
      </g>
    </g>
    <g transform="translate(198 48)">
      <mask id="secondary-l" fill="#fff">
        <use xlink:href="#secondary-k"/>
      </mask>
      <use fill="#000" xlink:href="#secondary-k"/>
      <g fill="#2A3B4D" mask="url(#secondary-l)">
        <rect width="24" height="24"/>
      </g>
    </g>
    <g transform="translate(0 12)">
      <circle cx="40.5" cy="40.5" r="12.5" fill="#CCE4FF"/>
      <rect width="48" height="48" stroke="#99C9FF"/>
      <path fill="#0071F2" fill-rule="nonzero" d="M42,38 L46,38 C47.1045695,38 48,38.8954305 48,40 C48,41.1045695 47.1045695,42 46,42 L42,42 L42,46 C42,47.1045695 41.1045695,48 40,48 C38.8954305,48 38,47.1045695 38,46 L38,42 L34,42 C32.8954305,42 32,41.1045695 32,40 C32,38.8954305 32.8954305,38 34,38 L38,38 L38,34 C38,32.8954305 38.8954305,32 40,32 C41.1045695,32 42,32.8954305 42,34 L42,38 Z"/>
      <path fill="#2A3B4D" d="M28.0139579,39.4160806 C28.004688,39.6095547 28,39.8042299 28,40 C28,41.1931265 28.1741276,42.3455834 28.4983564,43.4333443 C27.0605616,43.8032614 25.5532562,44 24,44 C14.0588745,44 6,35.9411255 6,26 C6,18.1174023 11.0668961,11.4182417 18.1213845,8.98182184 C18.0421113,8.66768304 18,8.33875933 18,8 C18,5.790861 19.790861,4 22,4 L26,4 C28.209139,4 30,5.790861 30,8 C30,8.33875933 29.9578887,8.66768304 29.8786155,8.98182184 C31.1886231,9.43426126 32.4300908,10.0336967 33.5832999,10.7604095 C33.5958572,10.7474768 33.6085307,10.734615 33.6213203,10.7218254 C35.0297859,9.31335983 37.3133598,9.31335983 38.7218254,10.7218254 L39.2781746,11.2781746 C40.6866402,12.6866402 40.6866402,14.9702141 39.2781746,16.3786797 C39.265385,16.3914693 39.2525232,16.4041428 39.2395905,16.4167001 C40.9882821,19.1916712 42,22.4776859 42,26 C42,26.7259683 41.9570227,27.4418988 41.8734737,28.1453859 C41.2630276,28.0496826 40.6373158,28 40,28 C39.2586363,28 38.5329749,28.0672291 37.8287795,28.1959233 C37.941482,27.4805055 38,26.7470866 38,26 C38,18.2680135 31.7319865,12 24,12 C16.2680135,12 10,18.2680135 10,26 C10,33.7319865 16.2680135,40 24,40 C25.3950487,40 26.7424402,39.7959547 28.0139579,39.4160806 Z"/>
      <path fill="#2A3B4D" d="M22,22.5351288 L22,18 C22,16.8954305 22.8954305,16 24,16 C25.1045695,16 26,16.8954305 26,18 L26,22.5351288 C27.1956027,23.2267476 28,24.5194353 28,26 C28,28.209139 26.209139,30 24,30 C21.790861,30 20,28.209139 20,26 C20,24.5194353 20.8043973,23.2267476 22,22.5351288 Z"/>
    </g>
  </g>
</svg>
